#!Matlab matrix to amc conversion
:FULLY-SPECIFIED
:DEGREES
226
root -3.028283 0.738450 88.968258 8.846733 -7.599200 -7.098107
lowerback -6.914224 3.505927 4.057719
upperback -0.878513 4.265394 3.132961
thorax 3.000890 2.153994 1.351599
lowerneck -24.210709 -4.040589 -12.246526
upperneck 24.899179 -4.645094 11.919597
head 12.913843 -1.623038 5.915230
rclavicle -0.000000 -0.000000
rhumerus -18.129544 27.290829 -81.734661
rradius 47.416161
rwrist -22.191090
rhand -28.856200 -18.800500
rfingers 7.125020
rthumb -2.212790 -48.768800
lclavicle -0.000000 -0.000000
lhumerus -55.041352 19.994208 60.353990
lradius 5.957437
lwrist -37.272538
lhand -19.668800 -28.799300
lfingers 7.125020
lthumb 6.659510 1.076010
rfemur 22.887660 1.606385 29.744202
rtibia -9.284656
rfoot 1.210034 8.966103
rtoes -20.766800
lfemur -41.159853 3.590436 -12.652682
ltibia 14.997179
lfoot -6.343696 12.724578
ltoes -22.051700
227
root -3.022114 0.694969 89.435577 8.642593 -7.370475 -7.138931
lowerback -6.873485 3.459579 3.916076
upperback -0.929996 4.226601 3.097379
thorax 2.921085 2.131629 1.386225
lowerneck -24.150707 -4.056064 -12.263444
upperneck 24.890483 -4.695959 12.031029
head 12.915707 -1.636386 5.953912
rclavicle -0.000000 -0.000000
rhumerus -18.251264 26.865825 -81.923494
rradius 47.780353
rwrist -21.792208
rhand -28.856200 -18.800500
rfingers 7.125020
rthumb -2.212790 -48.768800
lclavicle -0.000000 -0.000000
lhumerus -55.327596 19.009980 60.926870
lradius 4.948958
lwrist -36.360007
lhand -19.668800 -28.799300
lfingers 7.125020
lthumb 6.659510 1.076010
rfemur 24.421572 1.803257 29.434265
rtibia -9.113036
rfoot 3.577997 8.616894
rtoes -20.766800
lfemur -41.410377 4.498990 -13.519197
ltibia 18.095717
lfoot -4.504354 10.813573
ltoes -22.051700
228
root -3.014087 0.662019 89.910602 8.407543 -7.141295 -6.763373
lowerback -6.800887 3.399624 3.295974
upperback -1.035127 4.205860 2.948117
thorax 2.741841 2.115840 1.566253
lowerneck -24.116894 -4.112247 -12.256456
upperneck 24.982484 -4.813400 12.119332
head 12.970908 -1.680350 5.973243
rclavicle 0.000000 -0.000000
rhumerus -18.810037 26.152999 -82.201571
rradius 47.998193
rwrist -21.218214
rhand -28.856200 -18.800500
rfingers 7.125020
rthumb -2.212790 -48.768800
lclavicle 0.000000 -0.000000
lhumerus -55.597374 18.210354 61.344443
lradius 4.010091
lwrist -35.645590
lhand -19.668800 -28.799300
lfingers 7.125020
lthumb 6.659510 1.076010
rfemur 26.095716 2.049969 28.715203
rtibia -9.068752
rfoot 6.539315 7.919146
rtoes -20.766800
lfemur -41.497638 5.624289 -14.888991
ltibia 21.575692
lfoot -1.439958 9.343351
ltoes -22.051700
229
root -3.006477 0.641343 90.387798 8.107287 -6.810639 -5.872305
lowerback -6.650192 3.290061 2.112096
upperback -1.189562 4.161263 2.664672
thorax 2.440065 2.085355 1.911883
lowerneck -24.052398 -4.206771 -12.266180
upperneck 25.107175 -4.988952 12.218314
head 13.043890 -1.752114 5.991054
rclavicle 0.000000 -0.000000
rhumerus -19.887765 25.074908 -82.629126
rradius 47.963890
rwrist -20.486854
rhand -28.856200 -18.800500
rfingers 7.125020
rthumb -2.212790 -48.768800
lclavicle 0.000000 -0.000000
lhumerus -55.691854 17.400039 61.892518
lradius 3.304175
lwrist -34.751383
lhand -19.668800 -28.799300
lfingers 7.125020
lthumb 6.659510 1.076010
rfemur 27.226931 2.127858 27.446452
rtibia -7.930691
rfoot 10.137481 6.937027
rtoes -20.766800
lfemur -41.270271 6.823891 -16.861714
ltibia 25.100597
lfoot 2.288245 7.887906
ltoes -22.051700
230
root -2.999554 0.635747 90.860265 7.695343 -6.270531 -4.645789
lowerback -6.343559 3.104900 0.650085
upperback -1.350596 4.034810 2.296177
thorax 2.034818 2.013878 2.308839
lowerneck -23.878452 -4.307501 -12.356120
upperneck 25.147767 -5.162044 12.362886
head 13.068196 -1.827525 6.035560
rclavicle 0.000000 -0.000000
rhumerus -21.350115 23.716536 -83.198252
rradius 47.707635
rwrist -19.824776
rhand -28.856200 -18.800500
rfingers 7.125020
rthumb -2.212790 -48.768800
lclavicle 0.000000 -0.000000
lhumerus -55.456201 16.471832 62.814015
lradius 2.938419
lwrist -33.348031
lhand -19.668800 -28.799300
lfingers 7.125020
lthumb 6.659510 1.076010
rfemur 26.436548 1.569465 25.703603
rtibia -3.206435
rfoot 14.006160 6.058705
rtoes -20.766800
lfemur -40.653166 7.761481 -19.156414
ltibia 28.028455
lfoot 4.917002 5.861690
ltoes -22.051700
231
root -2.988258 0.648163 91.322386 7.187074 -5.645757 -3.477082
lowerback -5.876519 2.891281 -0.554778
upperback -1.468295 3.845043 1.941385
thorax 1.603716 1.915346 2.567679
lowerneck -23.619465 -4.363583 -12.516196
upperneck 25.142734 -5.250179 12.499384
head 13.046112 -1.874168 6.099885
rclavicle 0.000000 -0.000000
rhumerus -22.817326 22.413556 -83.814821
rradius 47.397638
rwrist -19.590859
rhand -28.856200 -18.800500
rfingers 7.125020
rthumb -2.212790 -48.768800
lclavicle 0.000000 -0.000000
lhumerus -54.908374 15.612717 63.976471
lradius 2.874530
lwrist -31.714947
lhand -19.668800 -28.799300
lfingers 7.125020
lthumb 6.659510 1.076010
rfemur 23.087771 0.207994 23.840073
rtibia 6.060907
rfoot 17.345363 5.526875
rtoes -20.766800
lfemur -39.755340 8.242277 -21.212370
ltibia 30.010176
lfoot 5.007198 3.400648
ltoes -22.051700
232
root -2.965384 0.679438 91.772383 6.674853 -5.200090 -2.439756
lowerback -5.361079 2.726004 -1.430775
upperback -1.537897 3.685612 1.612451
thorax 1.215446 1.837184 2.676636
lowerneck -23.401553 -4.374082 -12.664166
upperneck 25.196291 -5.254162 12.547984
head 13.035371 -1.891455 6.144805
rclavicle 0.000000 -0.000000
rhumerus -24.065136 21.406932 -84.455392
rradius 47.005635
rwrist -19.858601
rhand -28.856200 -18.800500
rfingers 7.125020
rthumb -2.212790 -48.768800
lclavicle 0.000000 -0.000000
lhumerus -54.204863 15.054087 65.004902
lradius 3.112197
lwrist -30.378788
lhand -19.668800 -28.799300
lfingers 7.125020
lthumb 6.659510 1.076010
rfemur 18.277440 -1.426817 22.064904
rtibia 17.446075
rfoot 19.617794 4.838964
rtoes -20.766800
lfemur -38.643523 8.449518 -22.898205
ltibia 31.200660
lfoot 3.355906 1.369131
ltoes -22.051700
233
root -2.929673 0.728487 92.209584 6.247614 -5.032939 -1.101161
lowerback -4.941257 2.622746 -2.529472
upperback -1.573584 3.612645 1.178922
thorax 0.905814 1.803165 2.816093
lowerneck -23.338818 -4.389090 -12.739371
upperneck 25.261867 -5.248893 12.511729
head 13.052437 -1.904168 6.147087
rclavicle -0.000000 -0.000000
rhumerus -25.179152 20.533973 -85.166833
rradius 46.272722
rwrist -20.315015
rhand -28.856200 -18.800500
rfingers 7.125020
rthumb -2.212790 -48.768800
lclavicle -0.000000 -0.000000
lhumerus -53.443587 14.913079 65.614182
lradius 3.714399
lwrist -29.511657
lhand -19.668800 -28.799300
lfingers 7.125020
lthumb 6.659510 1.076010
rfemur 13.454405 -2.711830 20.041022
rtibia 28.111319
rfoot 21.149182 3.142466
rtoes -20.766800
lfemur -37.049541 8.513483 -24.637017
ltibia 31.445087
lfoot 1.760567 0.346434
ltoes -22.051700
234
root -2.887664 0.794247 92.629814 5.945280 -5.162987 0.875415
lowerback -4.738104 2.545939 -4.209064
upperback -1.570874 3.603656 0.547115
thorax 0.729660 1.798680 3.087026
lowerneck -23.476852 -4.387544 -12.698588
upperneck 25.394437 -5.213104 12.377409
head 13.125341 -1.900317 6.100637
rclavicle -0.000000 -0.000000
rhumerus -26.131453 19.636440 -85.931100
rradius 45.087442
rwrist -20.696451
rhand -28.856200 -18.800500
rfingers 7.125020
rthumb -2.212790 -48.768800
lclavicle -0.000000 -0.000000
lhumerus -52.503945 15.107574 66.044939
lradius 4.629169
lwrist -28.927705
lhand -19.668800 -28.799300
lfingers 7.125020
lthumb 6.659510 1.076010
rfemur 8.996897 -3.485279 17.330633
rtibia 37.453064
rfoot 22.332027 0.106710
rtoes -20.766800
lfemur -34.650563 8.294941 -26.763202
ltibia 30.206492
lfoot 0.826853 0.294771
ltoes -22.051700
235
root -2.848919 0.875345 93.027114 5.756215 -5.611723 3.044670
lowerback -4.779408 2.464183 -5.933506
upperback -1.515870 3.585335 -0.135569
thorax 0.743994 1.788211 3.338024
lowerneck -23.759234 -4.254875 -12.506245
upperneck 25.803115 -4.996442 12.072678
head 13.299361 -1.822277 6.006212
rclavicle -0.000000 -0.000000
rhumerus -26.630634 18.931262 -86.691171
rradius 43.569924
rwrist -20.991305
rhand -28.856200 -18.800500
rfingers 7.125020
rthumb -2.212790 -48.768800
lclavicle -0.000000 -0.000000
lhumerus -51.181887 15.432732 66.860152
lradius 5.658122
lwrist -28.458074
lhand -19.668800 -28.799300
lfingers 7.125020
lthumb 6.659510 1.076010
rfemur 4.402900 -3.889910 14.347227
rtibia 46.281075
rfoot 22.519217 -3.776895
rtoes -20.766800
lfemur -31.658808 7.739324 -28.925296
ltibia 27.723774
lfoot -0.291108 0.839371
ltoes -22.051700
236
root -2.820020 0.968453 93.400952 5.673251 -6.071927 4.361190
lowerback -4.895148 2.338812 -6.732008
upperback -1.428411 3.450270 -0.554804
thorax 0.883144 1.721642 3.345922
lowerneck -23.961786 -3.977817 -12.257262
upperneck 26.195962 -4.577527 11.712575
head 13.421786 -1.659823 5.912496
rclavicle -0.000000 -0.000000
rhumerus -26.737048 18.594779 -87.468318
rradius 41.748887
rwrist -21.072896
rhand -28.856200 -18.800500
rfingers 7.125020
rthumb -2.212790 -48.768800
lclavicle -0.000000 -0.000000
lhumerus -49.655418 16.190593 67.702426
lradius 6.685131
lwrist -28.494596
lhand -19.668800 -28.799300
lfingers 7.125020
lthumb 6.659510 1.076010
rfemur -0.534014 -4.168629 12.565803
rtibia 54.498387
rfoot 20.642590 -7.776492
rtoes -20.766800
lfemur -28.761636 7.301052 -30.257151
ltibia 25.287268
lfoot -2.221714 1.407226
ltoes -22.051700
